<svg width="18" height="18" viewBox="0 0 18 18" fill="none" xmlns="http://www.w3.org/2000/svg">
<path d="M5.89977 7.54688C6.31377 7.54688 6.64977 7.21088 6.64977 6.79688V3.87187C6.64977 2.56425 7.71365 1.5 9.02165 1.5C10.3293 1.5 11.3935 2.56425 11.3935 3.87187V6.79688C11.3935 7.21088 11.7295 7.54688 12.1435 7.54688C12.5575 7.54688 12.8935 7.21088 12.8935 6.79688V3.87187C12.8935 1.737 11.1565 0 9.02165 0C6.88715 0 5.15015 1.737 5.15015 3.87187V6.79688C5.14977 7.21088 5.48577 7.54688 5.89977 7.54688Z" fill="black"/>
<path d="M17.6249 5.86157H13.6435V6.79682C13.6435 7.62407 12.9707 8.29682 12.1435 8.29682C11.3166 8.29682 10.6435 7.62407 10.6435 6.79682V5.86157H7.40012V6.79682C7.40012 7.62407 6.72737 8.29682 5.90012 8.29682C5.07287 8.29682 4.40012 7.62407 4.40012 6.79682V5.86157H0.374867C0.167867 5.86157 0.0399919 6.0247 0.0891169 6.2257L2.71299 16.9124C2.87162 17.5132 3.50349 17.9999 4.12487 17.9999H13.8749C14.4966 17.9999 15.1281 17.5128 15.2875 16.9124L17.911 6.2257C17.9597 6.02432 17.8322 5.86157 17.6249 5.86157Z" fill="black"/>
</svg>
