<svg width="102" height="48" viewBox="0 0 102 48" fill="none" xmlns="http://www.w3.org/2000/svg">
<path d="M46.959 23.9924C46.959 37.0365 36.4457 47.605 23.4823 47.605C10.5133 47.6107 0 37.0365 0 23.9924C0 10.9483 10.5133 0.379883 23.4767 0.379883C36.4457 0.379883 46.959 10.954 46.959 23.9924Z" fill="#78D64B"/>
<path d="M57.3308 41.0943V22.1884H60.2562L64.1209 31.26V22.1884H67.5669V41.0943H64.7546L60.8786 31.3113V41.0943H57.3308Z" fill="black"/>
<path d="M74.9453 41.3561C73.1629 41.3561 71.8332 40.8781 70.9618 39.9277C70.0904 38.9715 69.6208 37.452 69.5529 35.3634L73.112 34.817C73.129 36.0008 73.2704 36.8658 73.5364 37.4008C73.8023 37.9358 74.2097 38.2032 74.7416 38.2032C75.4432 38.2032 75.7941 37.7479 75.7941 36.8374C75.7941 36.3252 75.7035 35.8585 75.5225 35.4317C75.3414 35.0048 75.1207 34.6349 74.8548 34.3333C74.5888 34.0316 74.221 33.6731 73.7457 33.2633L72.0765 31.8178C71.6748 31.4706 71.3409 31.1462 71.0806 30.8617C70.8147 30.5714 70.5544 30.23 70.3054 29.8316C70.0508 29.4332 69.8641 28.9893 69.7452 28.5055C69.6264 28.0161 69.5642 27.4811 69.5642 26.8949C69.5642 25.3185 70.0338 24.1063 70.9675 23.2469C71.9067 22.3876 73.1912 21.955 74.8208 21.9493C75.381 21.9493 75.8903 22.0119 76.3429 22.1315C76.8013 22.251 77.186 22.4103 77.4972 22.6095C77.8084 22.8087 78.0857 23.0591 78.3234 23.3551C78.561 23.6567 78.7477 23.9583 78.8892 24.2543C79.0307 24.5559 79.1438 24.8917 79.24 25.2673C79.3362 25.6429 79.3985 25.9901 79.4324 26.2974C79.4664 26.6104 79.489 26.9462 79.506 27.299L75.9129 27.7657C75.9072 27.447 75.8959 27.1795 75.8846 26.9746C75.8733 26.764 75.8506 26.5421 75.8224 26.3088C75.7941 26.0754 75.7488 25.8819 75.6979 25.7396C75.6469 25.5974 75.5734 25.4608 75.4885 25.3356C75.4036 25.2104 75.2905 25.1193 75.1603 25.0681C75.0302 25.0169 74.8717 24.9941 74.6907 24.9998C74.3285 25.0055 74.0513 25.1591 73.8589 25.4608C73.6665 25.7624 73.5703 26.0982 73.5703 26.4681C73.5703 26.8266 73.6156 27.151 73.7005 27.4413C73.7853 27.7315 73.9381 28.0161 74.1531 28.2893C74.3681 28.5624 74.5436 28.7673 74.6794 28.9039C74.8152 29.0405 75.0415 29.2511 75.3584 29.5413L76.9597 30.9527C77.401 31.3454 77.7745 31.7267 78.0914 32.0853C78.4082 32.4438 78.7138 32.8593 78.9967 33.3146C79.2853 33.7755 79.5003 34.282 79.6474 34.8284C79.7945 35.3804 79.8681 35.9723 79.8681 36.604C79.8681 37.9699 79.4154 39.1081 78.5101 40.0073C77.6104 40.9065 76.4221 41.3561 74.9453 41.3561Z" fill="black"/>
<path d="M23.024 33.7129C22.0791 33.7129 21.2699 33.5593 20.5966 33.2519C19.9232 32.9446 19.3914 32.5007 19.0009 31.9088C18.6105 31.317 18.3276 30.6397 18.1522 29.8714C17.9768 29.1031 17.8862 28.2096 17.8862 27.1966V20.9648C17.8862 20.1339 17.9428 19.3883 18.0616 18.7338C18.1805 18.0794 18.3672 17.4704 18.6331 16.9241C18.8991 16.372 19.2442 15.9167 19.6743 15.5525C20.1043 15.1883 20.6362 14.9094 21.2756 14.7102C21.915 14.511 22.6506 14.4086 23.4937 14.4086C24.3028 14.4086 25.0215 14.4939 25.6439 14.6704C26.2663 14.8468 26.7869 15.0858 27.2056 15.3931C27.6243 15.7005 27.9638 16.0875 28.2241 16.5541C28.4844 17.0208 28.6768 17.5216 28.7899 18.0737C28.9031 18.62 28.9597 19.2347 28.9597 19.9119V21.1014H24.9309V19.5932C24.9309 19.3086 24.9253 19.0696 24.9139 18.8932C24.9026 18.7111 24.8743 18.5119 24.8234 18.2956C24.7725 18.0794 24.7046 17.9086 24.6084 17.7891C24.5122 17.6696 24.3821 17.5672 24.201 17.4761C24.0256 17.3907 23.8106 17.3452 23.5559 17.3452C23.2956 17.3452 23.0693 17.3964 22.8882 17.4932C22.7015 17.5899 22.5657 17.7094 22.4639 17.8517C22.3677 17.994 22.2885 18.1761 22.2319 18.4151C22.1753 18.6485 22.1413 18.8647 22.13 19.0525C22.1187 19.246 22.113 19.4794 22.113 19.7582V28.3519C22.113 29.0974 22.2262 29.6893 22.4469 30.1218C22.6676 30.5543 23.0693 30.7706 23.6578 30.7706C24.7385 30.7706 25.2761 29.934 25.2761 28.2665V26.1608H23.5899V23.6794H29.005V33.4397H26.272L26.0343 31.8633C25.4854 33.0983 24.4839 33.7129 23.024 33.7129Z" fill="black"/>
<path d="M35.5291 22.5753H36.5928C37.4416 22.5753 38.0357 22.3534 38.3866 21.9151C38.7317 21.4769 38.9071 20.8111 38.9071 19.9176C38.9071 19.0411 38.7487 18.398 38.4375 17.9712C38.1263 17.5444 37.5831 17.3395 36.8079 17.3395H35.5291V22.5753ZM31.3815 33.4454V14.5394H36.508C37.3001 14.5394 38.0074 14.585 38.6186 14.676C39.2297 14.7671 39.8068 14.9264 40.3444 15.1541C40.8819 15.3817 41.3233 15.6833 41.6684 16.0533C42.0136 16.4232 42.2908 16.9069 42.4832 17.4874C42.6813 18.0736 42.7775 18.7566 42.7775 19.5419C42.7775 20.7826 42.6134 21.7786 42.2795 22.5298C41.9457 23.281 41.3459 23.8672 40.4745 24.2883L43.0604 33.4454H38.76L36.6947 24.9827H35.5291V33.4454H31.3815Z" fill="black"/>
<path d="M54.9882 33.5763V30.7478H49.2053V25.1078H53.9245V25.1022H54.943V22.1883H49.2053V17.5216H54.943V14.6703H45.0577V22.1883V33.5763V41.0943H54.9373V38.2658H49.2053V33.5763H54.9882Z" fill="black"/>
<path d="M83.5971 41.0317V33.3316L80.0266 22.1997H83.9196L85.702 28.164L87.3146 22.1997H91.0774L87.5636 33.3316V41.0317H83.5971Z" fill="black"/>
<path d="M97.0471 41.2935C95.2703 41.2935 93.9463 40.8211 93.0805 39.8707C92.2091 38.9203 91.7451 37.4064 91.6772 35.3235L95.2251 34.7771C95.242 35.9609 95.3835 36.8146 95.6494 37.3495C95.9154 37.8845 96.3171 38.152 96.8547 38.152C97.5563 38.152 97.9071 37.6967 97.9071 36.7918C97.9071 36.2853 97.8166 35.8186 97.6355 35.3918C97.4545 34.9649 97.2338 34.6007 96.9678 34.2934C96.7019 33.9918 96.3341 33.6332 95.8588 33.2234L94.2009 31.7836C93.7991 31.4364 93.471 31.1177 93.205 30.8275C92.9391 30.5372 92.6844 30.1958 92.4298 29.7974C92.1752 29.399 91.9885 28.9608 91.8696 28.477C91.7508 27.9933 91.6886 27.4583 91.6886 26.8778C91.6886 25.3128 92.1526 24.1005 93.0862 23.2412C94.0198 22.3875 95.2986 21.955 96.9282 21.9436C97.4828 21.9436 97.992 22.0062 98.4447 22.1257C98.8974 22.2452 99.2821 22.4046 99.599 22.6038C99.9102 22.803 100.187 23.0477 100.425 23.3493C100.663 23.6509 100.849 23.9469 100.991 24.2485C101.132 24.5501 101.246 24.8859 101.342 25.2615C101.438 25.6372 101.5 25.9786 101.534 26.2916C101.568 26.6046 101.591 26.9347 101.608 27.2933L98.026 27.76C98.0203 27.4412 98.009 27.1795 97.9977 26.9689C97.9864 26.7583 97.9637 26.542 97.9354 26.303C97.9071 26.0697 97.8619 25.8819 97.8109 25.7339C97.76 25.5916 97.6865 25.455 97.6016 25.3298C97.5167 25.2046 97.4035 25.1136 97.2734 25.0624C97.1433 25.0111 96.9848 24.9884 96.8038 24.9941C96.4416 24.9997 96.1643 25.1534 95.972 25.455C95.7796 25.7567 95.6834 26.0868 95.6834 26.4624C95.6834 26.8209 95.7287 27.1396 95.8135 27.4356C95.8984 27.7258 96.0512 28.0104 96.2662 28.2835C96.4812 28.5567 96.6566 28.7616 96.7924 28.8982C96.9282 29.0348 97.1546 29.2453 97.4714 29.5356L99.0614 30.9413C99.4971 31.334 99.8763 31.7096 100.193 32.0738C100.51 32.4324 100.81 32.8421 101.098 33.3031C101.387 33.7641 101.602 34.2649 101.749 34.8113C101.896 35.3576 101.97 35.9495 101.97 36.5755C101.97 37.9357 101.517 39.0683 100.618 39.9675C99.7008 40.8439 98.5126 41.2935 97.0471 41.2935Z" fill="black"/>
</svg>
